<?xml version="1.0" encoding="UTF-8" standalone="no"?>
<!-- Created with Inkscape (http://www.inkscape.org/) -->

<svg
   xmlns:dc="http://purl.org/dc/elements/1.1/"
   xmlns:cc="http://creativecommons.org/ns#"
   xmlns:rdf="http://www.w3.org/1999/02/22-rdf-syntax-ns#"
   xmlns:svg="http://www.w3.org/2000/svg"
   xmlns="http://www.w3.org/2000/svg"
   xmlns:sodipodi="http://sodipodi.sourceforge.net/DTD/sodipodi-0.dtd"
   xmlns:inkscape="http://www.inkscape.org/namespaces/inkscape"
   version="1.1"
   id="svg2"
   width="16"
   height="16"
   viewBox="0 0 16 16"
   sodipodi:docname="krul-new-bold.svg"
   inkscape:version="0.92.3 (2405546, 2018-03-11)">
  <metadata
     id="metadata8">
    <rdf:RDF>
      <cc:Work
         rdf:about="">
        <dc:format>image/svg+xml</dc:format>
        <dc:type
           rdf:resource="http://purl.org/dc/dcmitype/StillImage" />
        <dc:title></dc:title>
      </cc:Work>
    </rdf:RDF>
  </metadata>
  <defs
     id="defs6" />
  <sodipodi:namedview
     pagecolor="#ffffff"
     bordercolor="#666666"
     borderopacity="1"
     objecttolerance="10"
     gridtolerance="10"
     guidetolerance="10"
     inkscape:pageopacity="0"
     inkscape:pageshadow="2"
     inkscape:window-width="1920"
     inkscape:window-height="1001"
     id="namedview4"
     showgrid="false"
     inkscape:zoom="45.254834"
     inkscape:cx="8.2178715"
     inkscape:cy="8.1798054"
     inkscape:window-x="-9"
     inkscape:window-y="-9"
     inkscape:window-maximized="1"
     inkscape:current-layer="svg2" />
  <path
     style="fill:#000000;fill-opacity:1;stroke-width:0.97948635"
     d="M 11.596465,0.19623872 C 10.55352,0.13023056 8.9834281,0.41661999 6.7602512,1.7094687 c -0.00194,0.00124 -0.00385,0.00252 -0.00574,0.00383 C 5.5037341,2.5054796 5.0187061,3.3413033 4.885453,4.0185314 4.7521999,4.6957597 4.957216,5.1819842 5.0518891,5.3442816 c 0.00121,0.00258 0.0025,0.00513 0.00383,0.00765 C 5.3730204,5.841677 5.8561313,6.2019302 6.3489472,6.5074189 5.3436346,7.2093918 4.685588,7.6547377 3.6553597,8.1985633 c -0.00127,-1.32e-5 -0.00256,-1.32e-5 -0.00383,0 -0.1028653,0.05696 -0.1842132,0.124151 -0.2429586,0.2027867 -0.058745,0.078636 -0.1126575,0.1832368 -0.063131,0.3118287 0.024763,0.064296 0.081156,0.1180314 0.1377403,0.1434795 0.056584,0.025448 0.1128316,0.030805 0.1683492,0.028696 0.1110353,-0.00422 0.2294184,-0.039463 0.3787858,-0.1071313 0.00456,-0.00236 0.00904,-0.00492 0.013392,-0.00765 C 5.2177153,8.1171132 6.2534195,7.3734782 7.020898,6.893058 c 1.3846205,0.6290049 2.981849,0.9954752 4.152782,1.4585495 0.576123,0.2112528 0.565047,0.4788143 0.43074,0.7650775 -0.68203,1.447224 -2.6661121,3.126994 -3.1530282,3.518265 -0.6002189,0.551952 -1.2003024,1.053634 -1.7294057,1.492188 -0.6982938,0.578389 -1.3932304,1.14679 -1.7294056,1.448185 -0.3594483,0.379861 0.4584227,0.123458 2.0252129,-1.195878 C 9.8678739,12.123023 10.531239,11.767187 12.262211,9.4630976 12.39022,9.2233108 12.48691,8.8723569 12.390386,8.475959 12.293857,8.079561 11.945231,7.6995009 11.200463,7.4677767 c 0,0 -1.823874,-0.5805122 -3.2962013,-0.9967039 -0.010312,-0.00408 -0.016966,-0.00749 -0.026783,-0.011479 C 8.0084188,6.3807988 8.16252,6.2874191 8.16252,6.2874191 c 6.423e-4,-6.33e-4 0.00128,-0.00127 0.00191,-0.00191 0,0 1.5274811,-0.9537141 2.928893,-2.0909738 0.700707,-0.5686299 1.369512,-1.1821812 1.809755,-1.7600145 0.220121,-0.2889168 0.386514,-0.5680218 0.46296,-0.8436592 0.07645,-0.2756374 0.05469,-0.5626984 -0.112871,-0.7900935 -0.0036,-0.004644 -0.0074,-0.009113 -0.01148,-0.0133914 C 13.175542,0.71294938 13.043013,0.60136822 12.774909,0.47554538 12.506806,0.34972254 12.117934,0.22924256 11.596465,0.19623872 Z M 11.39942,0.89067925 c 0.418333,0.0102992 0.708958,0.0921805 0.895312,0.17600145 0.09318,0.04191 0.160491,0.084464 0.202784,0.1166966 0.04229,0.032232 0.06485,0.076145 0.04209,0.030609 0.0066,0.0144 0.0149,0.027902 0.02487,0.040175 0.06548,0.074837 0.07599,0.1575716 0.0076,0.3309592 -0.06834,0.1733877 -0.226459,0.4019815 -0.447656,0.6504403 -0.442384,0.4969169 -1.134093,1.0795833 -1.857569,1.628013 -1.4469509,1.0968594 -3.0168946,2.064191 -3.0168946,2.064191 -0.00327,0.00244 -0.00646,0.005 -0.00957,0.00765 -0.085997,0.061708 -0.1201068,0.079213 -0.160697,0.1013921 -0.017174,0.00938 -0.051725,0.032414 -0.074609,0.045913 C 6.6223952,5.90344 6.264078,5.6827361 5.7597213,5.1185403 5.7569873,5.1154007 5.512356,4.8320815 5.5435456,4.3418382 5.5748338,3.850043 5.8945348,3.128378 7.1983419,2.2929517 9.2126754,1.141904 10.562672,0.8700789 11.39942,0.89067925 Z"
     id="path4520"
     inkscape:connector-curvature="0"
     sodipodi:nodetypes="sccscccccccccccccccccccccccccscccccssccccccscccccscs" />
</svg>
